<svg width="292" height="47" viewBox="0 0 292 47" fill="none" xmlns="http://www.w3.org/2000/svg">
<path d="M0.84 36V1.92H15.672C17.208 1.92 18.616 2.24 19.896 2.88C21.176 3.52 22.28 4.368 23.208 5.424C24.168 6.48 24.904 7.664 25.416 8.976C25.96 10.288 26.232 11.632 26.232 13.008C26.232 14.544 25.944 16 25.368 17.376C24.824 18.72 24.056 19.888 23.064 20.88C22.072 21.872 20.904 22.592 19.56 23.04L27.576 36H21.528L14.136 24.144H6.216V36H0.84ZM6.216 19.392H15.624C16.616 19.392 17.496 19.104 18.264 18.528C19.032 17.92 19.64 17.136 20.088 16.176C20.536 15.216 20.76 14.16 20.76 13.008C20.76 11.824 20.504 10.768 19.992 9.84C19.48 8.88 18.808 8.112 17.976 7.536C17.144 6.96 16.264 6.672 15.336 6.672H6.216V19.392ZM42.4815 36.48C39.8895 36.48 37.6175 35.888 35.6655 34.704C33.7135 33.52 32.1935 31.952 31.1055 30C30.0175 28.016 29.4735 25.856 29.4735 23.52C29.4735 21.152 30.0175 18.976 31.1055 16.992C32.1935 15.008 33.7135 13.424 35.6655 12.24C37.6175 11.056 39.9055 10.464 42.5295 10.464C45.1535 10.464 47.4255 11.072 49.3455 12.288C51.2655 13.472 52.7375 15.04 53.7615 16.992C54.8175 18.944 55.3455 21.04 55.3455 23.28C55.3455 24.08 55.2975 24.72 55.2015 25.2H35.0895C35.1855 26.672 35.5855 27.968 36.2895 29.088C37.0255 30.176 37.9375 31.04 39.0255 31.68C40.1455 32.288 41.3615 32.592 42.6735 32.592C44.0815 32.592 45.4095 32.24 46.6575 31.536C47.9055 30.832 48.7695 29.904 49.2495 28.752L53.7615 30.048C52.8975 31.936 51.4575 33.488 49.4415 34.704C47.4575 35.888 45.1375 36.48 42.4815 36.48ZM34.9455 21.696H50.1135C49.9855 20.256 49.5695 18.992 48.8655 17.904C48.1615 16.784 47.2495 15.92 46.1295 15.312C45.0415 14.672 43.8255 14.352 42.4815 14.352C41.1695 14.352 39.9535 14.672 38.8335 15.312C37.7455 15.92 36.8495 16.784 36.1455 17.904C35.4415 18.992 35.0415 20.256 34.9455 21.696ZM71.0284 36.48C68.4364 36.48 66.1644 35.888 64.2124 34.704C62.2604 33.488 60.7404 31.888 59.6524 29.904C58.5644 27.92 58.0204 25.76 58.0204 23.424C58.0204 21.088 58.5484 18.944 59.6044 16.992C60.6924 15.008 62.1964 13.424 64.1164 12.24C66.0684 11.056 68.3724 10.464 71.0284 10.464C73.6204 10.464 75.8444 11.04 77.7004 12.192C79.5884 13.312 80.9964 14.816 81.9244 16.704L76.7884 18.336C76.2124 17.28 75.3964 16.464 74.3404 15.888C73.3164 15.28 72.1804 14.976 70.9324 14.976C69.5244 14.976 68.2444 15.344 67.0924 16.08C65.9724 16.784 65.0764 17.776 64.4044 19.056C63.7644 20.336 63.4444 21.792 63.4444 23.424C63.4444 25.056 63.7804 26.512 64.4524 27.792C65.1564 29.072 66.0684 30.096 67.1884 30.864C68.3404 31.6 69.6044 31.968 70.9804 31.968C72.2604 31.968 73.4764 31.632 74.6284 30.96C75.7804 30.288 76.5484 29.472 76.9324 28.512L82.1164 30.048C81.2844 31.936 79.8924 33.488 77.9404 34.704C75.9884 35.888 73.6844 36.48 71.0284 36.48ZM86.4649 6.768V0.959999H91.7449V6.768H86.4649ZM86.4649 36V10.896H91.7449V36H86.4649ZM112.346 36.48C110.33 36.48 108.554 36 107.018 35.04C105.482 34.08 104.266 32.832 103.37 31.296V46.224H98.0899V10.896H102.746V15.408C103.706 13.904 104.954 12.704 106.49 11.808C108.026 10.912 109.738 10.464 111.626 10.464C113.93 10.464 115.962 11.072 117.722 12.288C119.514 13.472 120.922 15.056 121.946 17.04C122.97 18.992 123.482 21.12 123.482 23.424C123.482 25.856 123.002 28.064 122.042 30.048C121.082 32 119.77 33.568 118.106 34.752C116.442 35.904 114.522 36.48 112.346 36.48ZM110.618 31.968C112.122 31.968 113.418 31.568 114.506 30.768C115.626 29.936 116.49 28.88 117.098 27.6C117.738 26.288 118.058 24.896 118.058 23.424C118.058 21.888 117.706 20.48 117.002 19.2C116.33 17.92 115.402 16.896 114.218 16.128C113.066 15.36 111.738 14.976 110.234 14.976C109.338 14.976 108.394 15.2 107.402 15.648C106.442 16.096 105.594 16.688 104.858 17.424C104.122 18.16 103.626 18.992 103.37 19.92V26.496C104.01 28.032 104.986 29.328 106.298 30.384C107.642 31.44 109.082 31.968 110.618 31.968ZM139.607 36.48C137.015 36.48 134.743 35.888 132.791 34.704C130.839 33.52 129.319 31.952 128.23 30C127.143 28.016 126.599 25.856 126.599 23.52C126.599 21.152 127.143 18.976 128.23 16.992C129.319 15.008 130.839 13.424 132.791 12.24C134.743 11.056 137.031 10.464 139.655 10.464C142.279 10.464 144.551 11.072 146.471 12.288C148.391 13.472 149.863 15.04 150.887 16.992C151.943 18.944 152.471 21.04 152.471 23.28C152.471 24.08 152.423 24.72 152.327 25.2H132.215C132.311 26.672 132.711 27.968 133.415 29.088C134.151 30.176 135.063 31.04 136.151 31.68C137.271 32.288 138.487 32.592 139.799 32.592C141.207 32.592 142.535 32.24 143.783 31.536C145.031 30.832 145.895 29.904 146.375 28.752L150.887 30.048C150.023 31.936 148.583 33.488 146.567 34.704C144.583 35.888 142.263 36.48 139.607 36.48ZM132.071 21.696H147.239C147.111 20.256 146.695 18.992 145.991 17.904C145.287 16.784 144.375 15.92 143.255 15.312C142.167 14.672 140.951 14.352 139.607 14.352C138.295 14.352 137.079 14.672 135.959 15.312C134.871 15.92 133.975 16.784 133.271 17.904C132.567 18.992 132.167 20.256 132.071 21.696ZM183.999 27.216C183.999 29.04 183.519 30.608 182.559 31.92C181.599 33.232 180.319 34.24 178.719 34.944C177.151 35.648 175.407 36 173.487 36H157.215V1.92H174.783C176.383 1.92 177.759 2.352 178.911 3.216C180.063 4.048 180.959 5.136 181.599 6.48C182.239 7.824 182.559 9.2 182.559 10.608C182.559 12.272 182.127 13.84 181.263 15.312C180.431 16.752 179.231 17.824 177.663 18.528C179.583 19.104 181.119 20.16 182.271 21.696C183.423 23.2 183.999 25.04 183.999 27.216ZM162.591 6.576V16.608H172.479C173.823 16.608 174.943 16.144 175.839 15.216C176.735 14.256 177.183 13.056 177.183 11.616C177.183 10.144 176.767 8.944 175.935 8.016C175.103 7.056 174.047 6.576 172.767 6.576H162.591ZM178.479 26.208C178.479 24.8 178.031 23.568 177.135 22.512C176.271 21.456 175.167 20.928 173.823 20.928H162.591V31.344H173.487C174.895 31.344 176.079 30.848 177.039 29.856C177.999 28.832 178.479 27.616 178.479 26.208ZM200.214 36.48C197.59 36.48 195.302 35.888 193.35 34.704C191.43 33.488 189.942 31.904 188.886 29.952C187.83 27.968 187.302 25.808 187.302 23.472C187.302 21.136 187.83 18.992 188.886 17.04C189.974 15.056 191.478 13.472 193.398 12.288C195.35 11.072 197.622 10.464 200.214 10.464C202.806 10.464 205.062 11.072 206.982 12.288C208.934 13.472 210.438 15.056 211.494 17.04C212.582 18.992 213.126 21.136 213.126 23.472C213.126 25.808 212.598 27.968 211.542 29.952C210.486 31.904 208.982 33.488 207.03 34.704C205.11 35.888 202.838 36.48 200.214 36.48ZM192.726 23.52C192.726 25.12 193.062 26.56 193.734 27.84C194.406 29.12 195.302 30.128 196.422 30.864C197.542 31.6 198.806 31.968 200.214 31.968C201.59 31.968 202.838 31.6 203.958 30.864C205.11 30.096 206.022 29.072 206.694 27.792C207.366 26.512 207.702 25.072 207.702 23.472C207.702 21.872 207.366 20.432 206.694 19.152C206.022 17.872 205.11 16.864 203.958 16.128C202.838 15.36 201.59 14.976 200.214 14.976C198.838 14.976 197.574 15.36 196.422 16.128C195.302 16.864 194.406 17.888 193.734 19.2C193.062 20.48 192.726 21.92 192.726 23.52ZM229.089 36.48C226.465 36.48 224.177 35.888 222.225 34.704C220.305 33.488 218.817 31.904 217.761 29.952C216.705 27.968 216.177 25.808 216.177 23.472C216.177 21.136 216.705 18.992 217.761 17.04C218.849 15.056 220.353 13.472 222.273 12.288C224.225 11.072 226.497 10.464 229.089 10.464C231.681 10.464 233.937 11.072 235.857 12.288C237.809 13.472 239.313 15.056 240.369 17.04C241.457 18.992 242.001 21.136 242.001 23.472C242.001 25.808 241.473 27.968 240.417 29.952C239.361 31.904 237.857 33.488 235.905 34.704C233.985 35.888 231.713 36.48 229.089 36.48ZM221.601 23.52C221.601 25.12 221.937 26.56 222.609 27.84C223.281 29.12 224.177 30.128 225.297 30.864C226.417 31.6 227.681 31.968 229.089 31.968C230.465 31.968 231.713 31.6 232.833 30.864C233.985 30.096 234.897 29.072 235.569 27.792C236.241 26.512 236.577 25.072 236.577 23.472C236.577 21.872 236.241 20.432 235.569 19.152C234.897 17.872 233.985 16.864 232.833 16.128C231.713 15.36 230.465 14.976 229.089 14.976C227.713 14.976 226.449 15.36 225.297 16.128C224.177 16.864 223.281 17.888 222.609 19.2C221.937 20.48 221.601 21.92 221.601 23.52ZM264.156 36L256.092 24.432L251.964 28.368V36H246.684V0.959999H251.964V23.04L263.58 10.944H269.244L259.5 21.456L269.772 36H264.156ZM281.815 36.48C279.703 36.48 277.703 36.128 275.815 35.424C273.927 34.72 272.311 33.696 270.967 32.352L272.935 28.8C274.375 30.08 275.815 31.008 277.255 31.584C278.695 32.16 280.151 32.448 281.623 32.448C283.095 32.448 284.295 32.176 285.223 31.632C286.151 31.056 286.615 30.224 286.615 29.136C286.615 28.368 286.375 27.776 285.895 27.36C285.415 26.944 284.711 26.608 283.783 26.352C282.887 26.096 281.799 25.776 280.519 25.392C278.727 24.848 277.223 24.288 276.007 23.712C274.791 23.104 273.879 22.368 273.271 21.504C272.663 20.64 272.359 19.536 272.359 18.192C272.359 15.76 273.271 13.872 275.095 12.528C276.919 11.152 279.303 10.464 282.247 10.464C284.071 10.464 285.751 10.752 287.287 11.328C288.855 11.872 290.231 12.736 291.415 13.92L289.159 17.424C286.983 15.44 284.583 14.448 281.959 14.448C280.807 14.448 279.735 14.672 278.743 15.12C277.783 15.568 277.303 16.4 277.303 17.616C277.303 18.64 277.735 19.376 278.599 19.824C279.463 20.272 280.743 20.752 282.439 21.264C284.359 21.84 286.007 22.416 287.383 22.992C288.791 23.536 289.863 24.256 290.599 25.152C291.367 26.016 291.751 27.216 291.751 28.752C291.751 31.184 290.839 33.088 289.015 34.464C287.191 35.808 284.791 36.48 281.815 36.48Z" fill="#9CCD62"/>
</svg>
